<svg xmlns="http://www.w3.org/2000/svg" xmlns:xlink="http://www.w3.org/1999/xlink" viewBox="0 0 1200 1060" font-family="'Roboto','HYWenHei 85W','Noto Sans','Segoe UI',sans-serif">
  <defs>
    <linearGradient id="topGrad" x1="0" y1="0" x2="1200" y2="0" gradientUnits="userSpaceOnUse">
      <stop offset="0%" stop-color="#2D6BE4"/>
      <stop offset="100%" stop-color="#4A3F6B"/>
    </linearGradient>
    <filter id="card">
      <feDropShadow dx="0" dy="1" stdDeviation="4" flood-color="#2D6BE4" flood-opacity="0.06"/>
    </filter>
    <filter id="elevated">
      <feDropShadow dx="0" dy="4" stdDeviation="14" flood-color="#000" flood-opacity="0.07"/>
    </filter>
  </defs>

  <rect width="1200" height="1060" fill="#F9F7F2"/>
  <rect width="1200" height="6" fill="url(#topGrad)"/>

  <!-- Title Card -->
  <rect x="48" y="32" width="1104" height="80" rx="14" fill="#fff" filter="url(#elevated)"/>
  <rect x="48" y="32" width="4" height="80" rx="2" fill="#2D6BE4"/>
  <text x="72" y="82" fill="#1A1B2E" font-size="34" font-weight="bold">Status Display</text>
  <text x="360" y="82" fill="#4A4B65" font-size="16">Area Controls</text>

  <!-- I. Features -->
  <text x="48" y="148" fill="#2D6BE4" font-size="18" font-weight="700">I. Features of the Status Display Area</text>

  <rect x="48" y="164" width="1104" height="100" rx="14" fill="#fff" filter="url(#card)"/>
  <text x="72" y="192" fill="#4A4B65" font-size="14">The Status Display Area can be configured in a UI layout. It monitors unit statuses on entities</text>
  <text x="72" y="212" fill="#4A4B65" font-size="14">and displays them in a custom style.</text>

  <rect x="72" y="226" width="140" height="24" rx="12" fill="#FFF3E0"/>
  <text x="82" y="243" fill="#E65100" font-size="12" font-weight="500">Display only</text>
  <text x="224" y="243" fill="#4A4B65" font-size="13">Information display only, cannot be interacted with.</text>

  <rect x="540" y="226" width="180" height="24" rx="12" fill="#E8EEFB"/>
  <text x="550" y="243" fill="#2D6BE4" font-size="12" font-weight="500">No animation effects</text>
  <text x="732" y="243" fill="#4A4B65" font-size="13">Unlike Notification Queue, no add/remove animations.</text>

  <!-- II. Editing -->
  <text x="48" y="300" fill="#2D6BE4" font-size="18" font-weight="700">II. Editing the Status Display Area</text>

  <!-- Step 1 -->
  <rect x="48" y="316" width="1104" height="52" rx="14" fill="#fff" filter="url(#card)"/>
  <circle cx="80" cy="342" r="14" fill="#2D6BE4"/>
  <text x="80" y="347" fill="#fff" font-size="12" text-anchor="middle" font-weight="500">1</text>
  <text x="106" y="338" fill="#1A1B2E" font-size="14" font-weight="500">Adding the Status Display Area</text>
  <text x="106" y="356" fill="#4A4B65" font-size="13">In the UI Control Group Editing Window, add a UI control template: Status Display Area.</text>

  <!-- Step 2 -->
  <rect x="48" y="380" width="1104" height="76" rx="14" fill="#fff" filter="url(#card)"/>
  <circle cx="80" cy="410" r="14" fill="#2D6BE4"/>
  <text x="80" y="415" fill="#fff" font-size="12" text-anchor="middle" font-weight="500">2</text>
  <text x="106" y="410" fill="#1A1B2E" font-size="14" font-weight="500">Status Item Style Settings</text>
  <text x="106" y="430" fill="#4A4B65" font-size="13">Similar to Tab Controls and Single-Choice Viewport Controls, the style of status items can be customized.</text>
  <text x="106" y="448" fill="#4A4B65" font-size="13">Click [Detail Edit] to add any asset to the status item's Asset Group (e.g., a UI animation for status updates).</text>

  <!-- Step 3 -->
  <rect x="48" y="468" width="1104" height="220" rx="14" fill="#fff" filter="url(#card)"/>
  <circle cx="80" cy="498" r="14" fill="#2D6BE4"/>
  <text x="80" y="503" fill="#fff" font-size="12" text-anchor="middle" font-weight="500">3</text>
  <text x="106" y="502" fill="#1A1B2E" font-size="14" font-weight="500">Status Display Area Function Settings</text>

  <rect x="106" y="514" width="140" height="26" rx="6" fill="#E8EEFB"/>
  <text x="116" y="532" fill="#2D6BE4" font-size="12" font-weight="500">Initial Fill Point</text>
  <text x="260" y="532" fill="#4A4B65" font-size="13">The initial fill position when the first status item is added to the queue.</text>

  <rect x="106" y="548" width="140" height="26" rx="6" fill="#E8EEFB"/>
  <text x="116" y="566" fill="#2D6BE4" font-size="12" font-weight="500">Fill Direction</text>
  <text x="260" y="566" fill="#4A4B65" font-size="13">The direction in which status items are filled.</text>

  <rect x="106" y="582" width="220" height="26" rx="6" fill="#E8EEFB"/>
  <text x="116" y="600" fill="#2D6BE4" font-size="12" font-weight="500">New Status Insertion Position</text>
  <text x="340" y="600" fill="#4A4B65" font-size="13">Combined with Fill Direction and Initial Fill Point for different effects.</text>

  <rect x="106" y="616" width="90" height="26" rx="6" fill="#E8EEFB"/>
  <text x="116" y="634" fill="#2D6BE4" font-size="12" font-weight="500">Alignment</text>
  <text x="210" y="634" fill="#4A4B65" font-size="13">Sets the alignment of all status items relative to their parent control (top/bottom/left/right).</text>

  <!-- Example box -->
  <rect x="106" y="650" width="1020" height="28" rx="4" fill="#F4F1EA"/>
  <text x="116" y="669" fill="#1A1B2E" font-size="12" font-weight="500">Example (Auto Wrap):</text>
  <text x="280" y="669" fill="#4A4B65" font-size="12">Top-Left + Vertical + End of Queue = top to bottom  |  Bottom-Left + Vertical + Start of Queue = bottom to top</text>

  <!-- Step 4: Notes -->
  <rect x="48" y="700" width="1104" height="100" rx="14" fill="#fff" filter="url(#card)"/>
  <circle cx="80" cy="730" r="14" fill="#1B4FC0"/>
  <text x="80" y="735" fill="#fff" font-size="12" text-anchor="middle" font-weight="500">4</text>
  <text x="106" y="734" fill="#1A1B2E" font-size="14" font-weight="500">Notes: Layout Limit Behavior</text>

  <text x="106" y="758" fill="#4A4B65" font-size="13">Unlike the Notification Queue control, the Layout Limit parameter is affected by the fill direction:</text>

  <rect x="106" y="770" width="120" height="22" rx="11" fill="#E8EEFB"/>
  <text x="116" y="785" fill="#2D6BE4" font-size="11" font-weight="500">Fixed Rows</text>
  <text x="238" y="785" fill="#4A4B65" font-size="13">Status items fill the current column first, then wrap to a new column.</text>

  <rect x="600" y="770" width="140" height="22" rx="11" fill="#E5F2E9"/>
  <text x="610" y="785" fill="#34A853" font-size="11" font-weight="500">Fixed Columns</text>
  <text x="752" y="785" fill="#4A4B65" font-size="13">Status items fill the current row first, then wrap to a new row.</text>

  <!-- III. Steps to Display -->
  <text x="48" y="838" fill="#2D6BE4" font-size="18" font-weight="700">III. Steps to Display Status Items</text>
  <text x="420" y="838" fill="#8B8DA0" font-size="13">All three conditions must be met simultaneously</text>

  <!-- Step cards -->
  <rect x="48" y="854" width="352" height="100" rx="14" fill="#fff" filter="url(#card)"/>
  <circle cx="80" cy="884" r="14" fill="#2D6BE4"/>
  <text x="80" y="889" fill="#fff" font-size="12" text-anchor="middle" font-weight="500">1</text>
  <text x="106" y="888" fill="#1A1B2E" font-size="14" font-weight="500">Determine Monitored Entity</text>
  <text x="72" y="912" fill="#4A4B65" font-size="13">In the Status Item Configuration</text>
  <text x="72" y="930" fill="#4A4B65" font-size="13">under the Function tab, specify</text>
  <text x="72" y="948" fill="#4A4B65" font-size="13">the entity to monitor.</text>

  <rect x="424" y="854" width="352" height="100" rx="14" fill="#fff" filter="url(#card)"/>
  <circle cx="456" cy="884" r="14" fill="#2D6BE4"/>
  <text x="456" y="889" fill="#fff" font-size="12" text-anchor="middle" font-weight="500">2</text>
  <text x="482" y="888" fill="#1A1B2E" font-size="14" font-weight="500">Associate a Unit Status</text>
  <text x="448" y="912" fill="#4A4B65" font-size="13">Click Detail Edit, then click</text>
  <text x="448" y="930" fill="#4A4B65" font-size="13">[Associate Unit Status] to select</text>
  <text x="448" y="948" fill="#4A4B65" font-size="13">the unit status to display.</text>

  <rect x="800" y="854" width="352" height="100" rx="14" fill="#fff" filter="url(#card)"/>
  <circle cx="832" cy="884" r="14" fill="#1B4FC0"/>
  <text x="832" y="889" fill="#fff" font-size="12" text-anchor="middle" font-weight="500">3</text>
  <text x="858" y="888" fill="#1A1B2E" font-size="14" font-weight="500">Add Control Push Effect</text>
  <text x="824" y="912" fill="#4A4B65" font-size="13">Add "Status Display Area: Add</text>
  <text x="824" y="930" fill="#4A4B65" font-size="13">Status" effect in unit status config,</text>
  <text x="824" y="948" fill="#4A4B65" font-size="13">and select the target control.</text>

  <!-- Related Documentation -->
  <text x="48" y="984" fill="#8B8DA0" font-size="12">Related Documentation:</text>
  <a xlink:href="https://act.mihoyo.com/ys/ugc/tutorial/detail/mh4ve00q4j14" target="_blank">
    <text x="48" y="1000" fill="#2D6BE4" font-size="12" text-decoration="underline">Miliastra Academy Documentation: Status Display Area Controls</text>
  </a>

  <text x="600" y="1020" fill="#8B8DA0" font-size="11" text-anchor="middle">AI Generated, based on Craftspeople Academy. Version: Luna 7</text>
</svg>